HIERARCHY
ROOT Hips
{
	OFFSET 0.00000 0.00000 0.00000
	CHANNELS 6 Xposition Yposition Zposition Zrotation Yrotation Xrotation 
	JOINT LHipJoint
	{
		OFFSET 0 0 0
		CHANNELS 3 Zrotation Yrotation Xrotation
		JOINT LeftUpLeg
		{
			OFFSET 1.37324 -1.83837 0.85674
			CHANNELS 3 Zrotation Yrotation Xrotation
			JOINT LeftLeg
			{
				OFFSET 2.53826 -6.97383 0.00000
				CHANNELS 3 Zrotation Yrotation Xrotation
				JOINT LeftFoot
				{
					OFFSET 2.65296 -7.28895 0.00000
					CHANNELS 3 Zrotation Yrotation Xrotation
					JOINT LeftToeBase
					{
						OFFSET 0.22100 -0.60718 2.29776
						CHANNELS 3 Zrotation Yrotation Xrotation
						End Site
						{
							OFFSET 0.00000 -0.00000 1.19228
						}
					}
				}
			}
		}
	}
	JOINT RHipJoint
	{
		OFFSET 0 0 0
		CHANNELS 3 Zrotation Yrotation Xrotation
		JOINT RightUpLeg
		{
			OFFSET -1.30156 -1.83836 0.85673
			CHANNELS 3 Zrotation Yrotation Xrotation
			JOINT RightLeg
			{
				OFFSET -2.63627 -7.24310 0.00000
				CHANNELS 3 Zrotation Yrotation Xrotation
				JOINT RightFoot
				{
					OFFSET -2.62024 -7.19904 0.00000
					CHANNELS 3 Zrotation Yrotation Xrotation
					JOINT RightToeBase
					{
						OFFSET -0.20765 -0.57052 2.42402
						CHANNELS 3 Zrotation Yrotation Xrotation
						End Site
						{
							OFFSET -0.00000 -0.00000 1.24980
						}
					}
				}
			}
		}
	}
	JOINT LowerBack
	{
		OFFSET 0 0 0
		CHANNELS 3 Zrotation Yrotation Xrotation
		JOINT Spine
		{
			OFFSET 0.05739 2.14162 -0.22815
			CHANNELS 3 Zrotation Yrotation Xrotation
			JOINT Spine1
			{
				OFFSET 0.02798 2.14167 0.08145
				CHANNELS 3 Zrotation Yrotation Xrotation
				JOINT Neck
				{
					OFFSET 0 0 0
					CHANNELS 3 Zrotation Yrotation Xrotation
					JOINT Neck1
					{
						OFFSET -0.07019 1.58903 0.32980
						CHANNELS 3 Zrotation Yrotation Xrotation
						JOINT Head
						{
							OFFSET -0.03205 1.65283 -0.21190
							CHANNELS 3 Zrotation Yrotation Xrotation
							End Site
							{
								OFFSET -0.00726 1.66788 -0.10849
							}
						}
					}
				}
				JOINT LeftShoulder
				{
					OFFSET 0 0 0
					CHANNELS 3 Zrotation Yrotation Xrotation
					JOINT LeftArm
					{
						OFFSET 3.92858 0.97533 -0.07938
						CHANNELS 3 Zrotation Yrotation Xrotation
						JOINT LeftForeArm
						{
							OFFSET 5.58345 -0.00000 -0.00000
							CHANNELS 3 Zrotation Yrotation Xrotation
							JOINT LeftHand
							{
								OFFSET 3.71087 -0.00000 0.00000
								CHANNELS 3 Zrotation Yrotation Xrotation
								JOINT LeftFingerBase
								{
									OFFSET 0 0 0
									CHANNELS 3 Zrotation Yrotation Xrotation
									JOINT LeftHandIndex1
									{
										OFFSET 0.56232 -0.00000 -0.00000
										CHANNELS 3 Zrotation Yrotation Xrotation
										End Site
										{
											OFFSET 0.45336 -0.00000 -0.00000
										}
									}
								}
								JOINT LThumb
								{
									OFFSET 0 0 0
									CHANNELS 3 Zrotation Yrotation Xrotation
									End Site
									{
										OFFSET 0.46028 -0.00000 0.46028
									}
								}
							}
						}
					}
				}
				JOINT RightShoulder
				{
					OFFSET 0 0 0
					CHANNELS 3 Zrotation Yrotation Xrotation
					JOINT RightArm
					{
						OFFSET -3.89897 1.08887 -0.22589
						CHANNELS 3 Zrotation Yrotation Xrotation
						JOINT RightForeArm
						{
							OFFSET -5.20357 -0.00000 -0.00000
							CHANNELS 3 Zrotation Yrotation Xrotation
							JOINT RightHand
							{
								OFFSET -3.64937 -0.00000 0.00000
								CHANNELS 3 Zrotation Yrotation Xrotation
								JOINT RightFingerBase
								{
									OFFSET 0 0 0
									CHANNELS 3 Zrotation Yrotation Xrotation
									JOINT RightHandIndex1
									{
										OFFSET -0.61800 -0.00000 -0.00000
										CHANNELS 3 Zrotation Yrotation Xrotation
										End Site
										{
											OFFSET -0.49824 -0.00000 -0.00000
										}
									}
								}
								JOINT RThumb
								{
									OFFSET 0 0 0
									CHANNELS 3 Zrotation Yrotation Xrotation
									End Site
									{
										OFFSET -0.50585 -0.00000 0.50585
									}
								}
							}
						}
					}
				}
			}
		}
	}
}
MOTION
Frames: 5
Frame Time: .0083333
1.2162 17.8800 26.5912 -4.7666 2.7877 6.9863 0.0000 0.0000 0.0000 -17.4001 -6.7157 -10.0939 2.8574 10.4605 30.4813 1.1930 -5.9322 -19.5326 0.3148 3.6070 9.9736 0.0000 0.0000 0.0000 28.4406 1.9683 -9.3008 -2.2582 -9.3844 27.0052 -1.2139 1.4808 -20.3928 -0.0992 -2.0307 5.5904 3.6956 -0.1199 3.0382 3.7508 0.2077 -3.1226 1.8028 0.0456 -4.9459 -2.3358 -0.6929 -24.7307 -1.0069 0.1428 18.8508 0.0437 -0.2370 10.0767 -0.0000 0.0000 0.0000 -91.9575 8.2848 30.6646 25.1069 -36.3131 -8.3531 -0.0000 -0.0000 7.0548 6.7710 8.5514 1.0114 -7.1250 0.0000 -0.0000 -17.1432 38.0485 3.0418 -0.0000 0.0000 0.0000 87.0205 -4.1189 25.5962 -21.0209 31.8527 -6.0610 0.0000 0.0000 7.1847 -28.2814 -8.8002 4.7055 7.1250 -0.0000 -0.0000 -1.2062 -39.9474 -0.1503
1.2196 17.8760 26.6057 -4.8079 2.8172 7.0862 0.0000 0.0000 0.0000 -17.3595 -6.8285 -10.1037 2.8618 10.4678 30.5054 1.2161 -5.9163 -19.7266 0.3090 3.5737 9.8803 0.0000 0.0000 0.0000 28.4432 1.8411 -9.3809 -2.2514 -9.3711 26.9633 -1.2229 1.6998 -20.4136 -0.0938 -1.9754 5.4376 3.7661 -0.1048 3.0327 3.7608 0.2309 -3.1052 1.7719 0.0550 -4.9248 -2.2305 -0.6861 -24.6337 -1.1398 0.1405 18.6791 -0.0204 -0.2445 9.9982 -0.0000 -0.0000 0.0000 -91.9895 8.3539 30.4982 25.0967 -36.3027 -8.3471 -0.0000 -0.0000 7.0393 6.9342 8.5597 1.0370 -7.1250 0.0000 -0.0000 -17.0103 38.0680 3.0081 -0.0000 -0.0000 0.0000 86.9761 -4.1466 25.6054 -21.0310 31.8645 -6.0663 0.0000 0.0000 7.1234 -28.3082 -8.7298 4.6736 7.1250 -0.0000 -0.0000 -1.2335 -39.8704 -0.1560
1.2234 17.8716 26.6212 -4.8639 2.8276 7.1869 0.0000 0.0000 0.0000 -17.3059 -6.9116 -10.1357 2.8702 10.4818 30.5516 1.2368 -5.8827 -19.9007 0.2847 3.4315 9.4824 0.0000 0.0000 0.0000 28.4688 1.7694 -9.4295 -2.2431 -9.3550 26.9124 -1.2342 1.8776 -20.4661 -0.0873 -1.9058 5.2454 3.8636 -0.0765 3.0369 3.7703 0.2738 -3.0875 1.7239 0.0733 -4.9089 -2.1340 -0.6842 -24.5550 -1.2710 0.1343 18.4995 -0.0829 -0.2542 9.9203 -0.0000 0.0000 0.0000 -92.0050 8.4044 30.3752 25.0804 -36.2861 -8.3375 -0.0000 -0.0000 7.0720 6.9432 8.6684 1.0515 -7.1250 0.0000 -0.0000 -17.0297 38.1732 2.9660 -0.0000 0.0000 0.0000 86.9662 -4.2016 25.5500 -21.0974 31.9419 -6.1014 0.0000 0.0000 7.1285 -28.3263 -8.7713 4.6990 7.1250 -0.0000 -0.0000 -1.2472 -39.9188 -0.1562
1.2262 17.8673 26.6351 -4.9398 2.8167 7.2782 0.0000 0.0000 0.0000 -17.2221 -6.9532 -10.1865 2.8804 10.4989 30.6080 1.2562 -5.8760 -20.0608 0.2717 3.3529 9.2628 0.0000 0.0000 0.0000 28.5305 1.7776 -9.4480 -2.2357 -9.3406 26.8667 -1.2442 1.9545 -20.5325 -0.0797 -1.8209 5.0109 3.9598 -0.0381 3.0712 3.7909 0.3330 -3.0771 1.6874 0.0997 -4.9178 -1.0950 -0.6260 -23.8879 -2.5143 0.1065 17.7270 -0.6874 -0.3325 9.5316 -0.0000 -0.0000 0.0000 -92.0196 8.4641 30.2466 25.0653 -36.2707 -8.3285 -0.0000 -0.0000 7.0814 7.0273 8.6219 1.0587 -7.1250 0.0000 -0.0000 -16.9486 38.1345 2.9676 -0.0000 -0.0000 0.0000 86.9127 -4.2572 25.5420 -21.1487 32.0016 -6.1286 0.0000 0.0000 7.0592 -28.3664 -8.7856 4.7145 7.1250 -0.0000 -0.0000 -1.2817 -39.9385 -0.1599
1.2272 17.8623 26.6504 -5.0239 2.7994 7.3597 0.0000 0.0000 0.0000 -17.1226 -6.9804 -10.2417 2.8923 10.5186 30.6728 1.2754 -5.8619 -20.2189 0.2578 3.2669 9.0228 0.0000 0.0000 0.0000 28.6214 1.8984 -9.4085 -2.2292 -9.3280 26.8270 -1.2588 1.9373 -20.6607 -0.0679 -1.6812 4.6254 4.0279 -0.0013 3.1047 3.8250 0.3878 -3.0446 1.6805 0.1255 -4.9031 -2.2278 -0.7182 -24.6082 -1.2567 0.1172 18.3653 -0.0651 -0.2658 9.8818 0.0000 0.0000 0.0000 -92.0401 8.5006 30.1094 25.0623 -36.2677 -8.3268 -0.0000 -0.0000 7.0996 7.0488 8.8212 1.0863 -7.1250 0.0000 -0.0000 -16.9800 38.3280 2.8897 0.0000 0.0000 0.0000 86.8756 -4.2704 25.5042 -21.1946 32.0548 -6.1529 0.0000 0.0000 7.0100 -28.3953 -8.6916 4.6703 7.1250 -0.0000 -0.0000 -1.3119 -39.8349 -0.1671
